<?xml version="1.0" encoding="UTF-8"?>
<svg id="a" xmlns="http://www.w3.org/2000/svg" version="1.1" xmlns:xlink="http://www.w3.org/1999/xlink" viewBox="0 0 1794.5 271.8">
  <!-- Generator: Adobe Illustrator 30.3.0, SVG Export Plug-In . SVG Version: 2.1.3 Build 182)  -->
  <defs>
    <style>
      .st0 {
        fill: url(#linear-gradient1);
      }

      .st1 {
        fill: #f4f4f4;
      }

      .st2 {
        fill: url(#linear-gradient);
      }
    </style>
    <linearGradient id="linear-gradient" x1="0" y1="135.4" x2="515.2" y2="135.4" gradientTransform="translate(0 271.9) scale(1 -1)" gradientUnits="userSpaceOnUse">
      <stop offset="0" stop-color="#ee0979"/>
      <stop offset="1" stop-color="#ff6a00"/>
    </linearGradient>
    <linearGradient id="linear-gradient1" x1="1042.9" y1="101.5" x2="1112.6" y2="99.5" gradientTransform="translate(0 271.9) scale(1 -1)" gradientUnits="userSpaceOnUse">
      <stop offset="0" stop-color="#ee0979"/>
      <stop offset="1" stop-color="#ff6a00"/>
    </linearGradient>
  </defs>
  <path class="st2" d="M261,153c-13.1,17.7-26.3,35.4-39.5,53.1-7.8,10.4-15.2,21.1-25.5,29.3-16.1,12.9-34.8,19.6-55,22.6-35,5.2-66.6-3.3-94.8-24.3-22.2-16.6-35.1-39.3-41.7-65.8-10.8-43.3-2.3-82.2,27.8-115.6C51.9,30.7,77.1,18.9,105.3,13.5c35.7-6.8,67.6,2.6,96.2,23.9,15.9,11.8,31.2,24.4,46.8,36.7.6.5,1.2,1,2.1,1.9-10.2,13.4-20.2,26.6-30.2,39.7-15.2,20.1-30.4,40.2-45.7,60.2-11,14.5-25.1,24.3-43.4,26.6-25,3.2-62.4-10.8-69.7-48.5-2.2-11.5-.7-22.6.7-34.5,8.3,3.4,16.1,6.6,23.8,9.8-3.4,18.6,3.3,32.9,18.5,42.7,15.1,9.7,37.9,4.1,48-10.7,3.7-5.4,2.9-9.9-2.4-13.9-7.8-5.9-15.7-11.8-23.7-17.9,5.1-6.8,10.1-13.4,15.1-20.1,8,6,15.7,11.8,23.6,17.5,9,6.5,9,6.4,15.5-2.2,9.4-12.6,18.9-25.2,28.4-37.8,3.5-4.7,3.4-6.5-.7-10.4-14.5-13.8-30.1-25.7-49-32.9-40.1-15.4-96.9-.5-121,44.9-9,17-13.9,34.7-12.7,54,2.8,42.4,34.4,82.3,79.5,89.3,27.1,4.2,51.9-.5,73.9-17.4,11.4-8.8,19.8-20.2,28.2-31.6l86.3-115.9c7.8-10.4,15.2-21.1,25.5-29.3,16.1-12.9,34.8-19.6,55-22.6,35-5.2,66.6,3.3,94.8,24.3,22.2,16.6,35.1,39.3,41.7,65.8,10.8,43.3,2.3,82.2-27.8,115.6-19.6,21.6-44.8,33.4-73,38.8-35.7,6.8-67.6-2.6-96.2-23.9-15.9-11.8-31.2-24.4-46.8-36.7-.6-.5-1.2-1-2.1-1.9,10.2-13.4,20.2-26.6,30.2-39.7,15.2-20.1,30.4-40.2,45.7-60.2,11-14.5,25.1-24.3,43.4-26.6,25-3.2,62.4,10.8,69.7,48.5,2.2,11.5.7,22.6-.7,34.5-8.3-3.4-16.1-6.6-23.8-9.8,3.4-18.6-3.3-32.9-18.5-42.7-15.1-9.7-37.9-4.1-48,10.7-3.7,5.4-2.9,9.9,2.4,13.9,7.8,5.9,15.7,11.8,23.7,17.9-5.1,6.8-10.1,13.4-15.1,20.1-8-6-15.7-11.8-23.6-17.5-9-6.5-9-6.4-15.5,2.2-9.4,12.6-18.9,25.2-28.4,37.8-3.5,4.7-3.4,6.5.7,10.4,14.5,13.8,30.1,25.7,49,32.9,40.1,15.4,96.9.5,121-44.9,9-17,13.9-34.7,12.7-54-2.8-42.4-34.4-82.3-79.5-89.3-27.1-4.2-51.9.5-73.9,17.4-11.4,8.8-19.8,20.2-28.2,31.6l-46.8,62.8h0Z"/>
  <g>
    <g>
      <path class="st1" d="M644,62.6v16.5h44.1c6.2,0,11.3,5,11.3,11.3v5.9c0,6.2-5,11.3-11.3,11.3h-43.4v150.9c0,6.2-5,11.3-11.3,11.3h-12c-6.2,0-11.3-5-11.3-11.3V107.5h-21.1c-6.2,0-11.3-5-11.3-11.3v-5.9c0-6.2,5-11.3,11.3-11.3h21.1v-16.9c0-37,22.3-61.5,62.9-61.5s20.8,1.8,29.3,5.6c5.6,2.4,8.2,8.9,5.9,14.5l-2.1,5.4c-2.3,5.7-8.8,8.7-14.5,6.3-5.2-2.2-10.9-3.4-16.8-3.4-20.5,0-30.9,11.5-30.9,33.4h0Z"/>
      <g>
        <path class="st1" d="M738.3,79.1h12c6.2,0,11.3,5,11.3,11.3v168.1c0,6.2-5,11.3-11.3,11.3h-12c-6.2,0-11.3-5-11.3-11.3V90.4c0-6.2,5-11.3,11.3-11.3Z"/>
        <path class="st1" d="M968.1,160v101.3c0,4.6-3.7,8.4-8.4,8.4h-17.8c-4.6,0-8.4-3.7-8.4-8.4v-97.4c0-37.4-18.7-55.7-51.4-55.7s-60.4,21.9-60.4,63.3v89.8c0,4.6-3.7,8.4-8.4,8.4h-17.8c-4.6,0-8.4-3.7-8.4-8.4V87.5c0-4.6,3.7-8.4,8.4-8.4h16.4c4.6,0,8.4,3.7,8.4,8.4v20.4c14-19.4,38.5-30.6,68.7-30.6,46.4,0,79.1,26.6,79.1,82.7h0Z"/>
        <path class="st1" d="M1181.2,20.1v246.7c0,1.6-1.3,2.9-2.9,2.9h0c-16.7,0-30.2-13.5-30.2-30.2h0c-15.5,21.6-39.9,32.4-68,32.4-55.7,0-96.4-39.2-96.4-97.4s40.6-97.1,96.4-97.1,50.7,10.1,66.5,30.6V20.1c0-9.5,7.7-17.3,17.3-17.3h0c9.5,0,17.3,7.7,17.3,17.3h0ZM1147.1,174.4c0-40.6-27.7-66.9-64-66.9s-64.4,26.2-64.4,66.9,27.7,67.2,64.4,67.2,64-26.6,64-67.2Z"/>
      </g>
      <g>
        <path class="st1" d="M1297.8,80.6h41.3c4.6,0,8.3,3.7,8.3,8.3v26.6c0,4.6-3.7,8.3-8.3,8.3h-39.9v137.7c0,4.6-3.7,8.3-8.3,8.3h-39.6c-4.6,0-8.3-3.7-8.3-8.3V123.7h-21.6c-4.6,0-8.3-3.7-8.3-8.3v-26.6c0-4.6,3.7-8.3,8.3-8.3h21.6v-8.6c0-43.5,26.6-71.9,74.8-71.9s26,2.1,36.1,6.7c3.8,1.7,5.7,6.4,4.2,10.3l-9.2,25.4c-1.6,4.3-6.4,6.3-10.7,4.6-4.6-1.8-9.7-2.8-15.1-2.8-16.5,0-25.5,9-25.5,28.1v8.3h0Z"/>
        <path class="st1" d="M1570.4,83.2v179.4c0,3.9-3.1,7-7,7h-39.2c-3.9,0-7-3.1-7-7v-16c-14.7,16.9-36.3,25.9-60.1,25.9-48.6,0-82.7-27.3-82.7-87v-102.3c0-3.9,3.1-7,7-7h42.1c3.9,0,7,3.1,7,7v94c0,32.4,14.4,46.8,39.2,46.8s44.6-16.5,44.6-52.1v-88.6c0-3.9,3.1-7,7-7h42.1c3.9,0,7,3.1,7,7h0Z"/>
        <path class="st1" d="M1794.5,158.9v103.7c0,3.9-3.2,7.1-7.1,7.1h-42c-3.9,0-7.1-3.2-7.1-7.1v-95.1c0-31.3-14.4-45.7-39.2-45.7s-46.4,16.5-46.4,52.1v88.6c0,3.9-3.2,7.1-7.1,7.1h-42c-3.9,0-7.1-3.2-7.1-7.1V83.3c0-3.9,3.2-7.1,7.1-7.1h39.5c3.9,0,7.1,3.2,7.1,7.1v15.6c15.1-16.5,37.8-25.5,64-25.5,45.7,0,80.2,26.6,80.2,85.6h0Z"/>
      </g>
    </g>
    <circle class="st0" cx="1082.5" cy="171.5" r="22.7"/>
  </g>
</svg>